<svg viewBox="0 -62 512 512" xmlns="http://www.w3.org/2000/svg">
	<path d="m102.125 107.191406c-18.734375 0-33.972656 15.238282-33.972656 33.96875 0 18.734375 15.238281 33.976563 33.972656 33.976563 18.730469 0 33.972656-15.242188 33.972656-33.976563 0-18.730468-15.242187-33.96875-33.972656-33.96875zm0 52.941406c-10.460938 0-18.972656-8.511718-18.972656-18.972656 0-10.460937 8.511718-18.972656 18.972656-18.972656s18.972656 8.511719 18.972656 18.972656c0 10.460938-8.511718 18.972656-18.972656 18.972656zm0 0"/>
	<path d="m102.125 281.972656c-18.734375 0-33.972656 15.238282-33.972656 33.972656 0 18.730469 15.238281 33.972657 33.972656 33.972657 18.730469 0 33.972656-15.242188 33.972656-33.972657 0-18.734374-15.242187-33.972656-33.972656-33.972656zm0 52.941406c-10.460938 0-18.972656-8.507812-18.972656-18.972656 0-10.460937 8.511718-18.96875 18.972656-18.96875s18.972656 8.507813 18.972656 18.96875c0 10.464844-8.511718 18.972656-18.972656 18.972656zm0 0"/>
	<path d="m216.953125 175.132812c18.730469 0 33.972656-15.238281 33.972656-33.972656 0-18.730468-15.242187-33.972656-33.972656-33.972656-18.734375 0-33.972656 15.242188-33.972656 33.972656 0 18.734375 15.238281 33.972656 33.972656 33.972656zm0-52.941406c10.460937 0 18.972656 8.507813 18.972656 18.96875 0 10.464844-8.511719 18.976563-18.972656 18.976563-10.464844 0-18.972656-8.511719-18.972656-18.976563 0-10.460937 8.507812-18.96875 18.972656-18.96875zm0 0"/>
	<path d="m102.125 194.578125c-18.734375 0-33.972656 15.242187-33.972656 33.976563 0 18.730468 15.238281 33.96875 33.972656 33.96875 18.730469 0 33.972656-15.238282 33.972656-33.96875 0-18.734376-15.242187-33.976563-33.972656-33.976563zm0 52.945313c-10.460938 0-18.972656-8.511719-18.972656-18.972657 0-10.460937 8.511718-18.972656 18.972656-18.972656s18.972656 8.511719 18.972656 18.972656c0 10.464844-8.511718 18.972657-18.972656 18.972657zm0 0"/>
	<path d="m216.953125 262.523438c18.730469 0 33.972656-15.238282 33.972656-33.972657 0-18.730469-15.242187-33.972656-33.972656-33.972656-18.734375 0-33.972656 15.242187-33.972656 33.972656 0 18.734375 15.238281 33.972657 33.972656 33.972657zm0-52.945313c10.460937 0 18.972656 8.511719 18.972656 18.976563 0 10.460937-8.511719 18.96875-18.972656 18.96875-10.464844 0-18.972656-8.507813-18.972656-18.96875 0-10.464844 8.507812-18.976563 18.972656-18.976563zm0 0"/>
	<path d="m216.953125 349.914062c18.730469 0 33.972656-15.238281 33.972656-33.972656 0-18.730468-15.242187-33.96875-33.972656-33.96875-18.734375 0-33.972656 15.238282-33.972656 33.96875 0 18.734375 15.238281 33.972656 33.972656 33.972656zm0-52.941406c10.460937 0 18.972656 8.511719 18.972656 18.972656 0 10.460938-8.511719 18.972657-18.972656 18.972657-10.464844 0-18.972656-8.511719-18.972656-18.972657 0-10.460937 8.507812-18.972656 18.972656-18.972656zm0 0"/>
	<path d="m463.136719 0h-221.347657c-26.941406 0-48.863281 21.921875-48.863281 48.863281v20.152344h-50.328125c-4.144531 0-7.5 3.355469-7.5 7.5 0 4.140625 3.355469 7.5 7.5 7.5h127.613282c18.699218 0 33.863281 15.214844 33.863281 33.863281v221.347656c0 18.671876-15.191407 33.863282-33.863281 33.863282h-221.347657c-18.671875 0-33.863281-15.191406-33.863281-33.863282v-221.347656c0-18.671875 15.191406-33.863281 33.863281-33.863281h65.730469c4.144531 0 7.5-3.359375 7.5-7.5 0-4.144531-3.355469-7.5-7.5-7.5h-65.730469c-26.941406 0-48.863281 21.921875-48.863281 48.863281v221.347656c0 26.941407 21.921875 48.863282 48.863281 48.863282h221.347657c26.941406 0 48.863281-21.921875 48.863281-48.863282v-20.152343h75.925781c4.140625 0 7.5-3.355469 7.5-7.5 0-4.140625-3.359375-7.5-7.5-7.5h-75.925781v-80.679688c47.90625 25.011719 105.453125-9.839843 105.453125-63.859375 0-56.320312-61.929688-90.652344-109.652344-61.472656-7.617188-17.097656-24.773438-29.046875-44.664062-29.046875h-62.285157v-20.152344c0-18.671875 15.191407-33.863281 33.863281-33.863281h221.347657c18.671875 0 33.863281 15.191406 33.863281 33.863281v221.347657c0 18.671874-15.191406 33.863281-33.863281 33.863281h-40.136719c-4.140625 0-7.5 3.359375-7.5 7.5 0 4.144531 3.359375 7.5 7.5 7.5h40.136719c26.941406 0 48.863281-21.921875 48.863281-48.863281v-221.347657c0-26.941406-21.921875-48.863281-48.863281-48.863281zm-53.609375 159.535156c0 46.671875-53.058594 73.253906-90.453125 46.277344-.097657-87.339844.238281-87.550781-.203125-92.394531 37.484375-27.316407 90.65625-.542969 90.65625 46.117187zm0 0"/>
</svg>