<?xml version="1.0" encoding="iso-8859-1"?>
<!-- Generator: Adobe Illustrator 19.0.0, SVG Export Plug-In . SVG Version: 6.00 Build 0)  -->
<svg version="1.1" id="Capa_1" xmlns="http://www.w3.org/2000/svg" xmlns:xlink="http://www.w3.org/1999/xlink" x="0px" y="0px"
	 viewBox="0 0 512 512" style="enable-background:new 0 0 512 512;" xml:space="preserve">
<g>
	<g>
		<path d="M329.905,1.712c-25.263,0-50.736,5.422-73.905,15.707C232.832,7.134,207.358,1.712,182.095,1.712
			C81.687,1.712,0,83.4,0,183.808c0,42.934,11.566,85.842,34.376,127.533c17.025,31.117,40.388,61.613,69.439,90.642
			c48.176,48.14,97.524,77.552,102.993,80.748l45.408,26.534c1.169,0.683,2.477,1.024,3.784,1.024s2.615-0.341,3.784-1.024
			l45.405-26.533c5.469-3.195,54.819-32.608,102.995-80.749c29.051-29.028,52.414-59.525,69.439-90.642
			C500.434,269.65,512,226.741,512,183.808C512,83.4,430.312,1.712,329.905,1.712z M464.464,304.141
			c-16.34,29.864-38.843,59.213-66.883,87.232c-46.847,46.812-94.662,75.312-99.96,78.408L256,494.103l-41.624-24.323
			c-5.297-3.096-53.11-31.594-99.958-78.407c-28.04-28.019-50.542-57.368-66.882-87.232C25.947,264.683,15,224.197,15,183.808
			C15,91.671,89.958,16.712,182.095,16.712c24.242,0,48.699,5.444,70.729,15.742c2.013,0.941,4.34,0.941,6.353,0
			c22.029-10.298,46.487-15.742,70.729-15.742C422.042,16.712,497,91.671,497,183.808C497,224.197,486.053,264.683,464.464,304.141z
			"/>
	</g>
</g>
<g>
	<g>
		<path d="M329.905,31.712c-25.835,0-51.29,6.625-73.905,19.2c-22.615-12.574-48.07-19.2-73.905-19.2
			C98.229,31.712,30,99.941,30,183.808c0,37.844,10.327,75.907,30.695,113.133c15.654,28.61,37.296,56.811,64.326,83.821
			c45.515,45.481,91.796,73.071,96.923,76.067l30.272,17.689c1.168,0.683,2.476,1.024,3.784,1.024s2.615-0.341,3.784-1.024
			l30.271-17.689c5.127-2.996,51.403-30.58,96.924-76.067c27.03-27.01,48.672-55.211,64.326-83.821
			C471.673,259.715,482,221.652,482,183.808C482,99.941,413.771,31.712,329.905,31.712z M438.146,289.741
			c-14.968,27.357-35.75,54.411-61.77,80.411c-44.192,44.16-88.933,70.83-93.889,73.726L256,459.355l-26.488-15.479
			c-4.957-2.896-49.702-29.572-93.888-73.726c-26.02-26-46.802-53.054-61.77-80.411C54.708,254.748,45,219.107,45,183.808
			c0-75.595,61.5-137.096,137.095-137.096c24.608,0,48.838,6.673,70.072,19.297c2.362,1.404,5.304,1.404,7.666,0
			c21.233-12.625,45.464-19.297,70.072-19.297C405.5,46.712,467,108.212,467,183.808C467,219.107,457.292,254.748,438.146,289.741z"
			/>
	</g>
</g>
<g>
	<g>
		<path d="M329.905,91.712c-29.3,0-56.655,13.987-73.905,37.162c-17.25-23.175-44.605-37.162-73.905-37.162
			C131.314,91.712,90,133.025,90,183.808c0,29.184,8.668,59.064,25.763,88.81c13.495,23.483,32.257,46.947,55.766,69.741
			c39.819,38.609,79.037,61.702,80.687,62.667c1.169,0.683,2.477,1.024,3.784,1.024s2.615-0.341,3.784-1.024
			c1.65-0.964,40.867-24.058,80.687-62.667c23.509-22.794,42.271-46.258,55.766-69.741C413.332,242.871,422,212.991,422,183.808
			C422,133.026,380.686,91.712,329.905,91.712z M330.259,331.367c-31.555,30.643-63.513,51.662-74.261,58.391
			c-10.712-6.702-42.494-27.594-74.027-58.168C146.857,297.543,105,244.267,105,183.808c0-42.511,34.585-77.096,77.095-77.096
			c27.916,0,53.726,15.17,67.356,39.592c1.325,2.374,3.831,3.845,6.549,3.845s5.224-1.471,6.549-3.845
			c13.63-24.421,39.44-39.592,67.356-39.592c42.51,0,77.095,34.585,77.095,77.096C407,244.172,365.268,297.37,330.259,331.367z"/>
	</g>
</g>
<g>
	<g>
		<path d="M329.905,61.712c-26.683,0-52.692,8.817-73.905,24.942c-21.213-16.125-47.222-24.942-73.905-24.942
			c-27.089,0-52.767,8.729-74.26,25.246c-3.285,2.524-3.901,7.232-1.377,10.517s7.233,3.902,10.517,1.377
			c18.848-14.483,41.366-22.139,65.12-22.139c25.213,0,49.743,8.979,69.069,25.281c2.794,2.356,6.878,2.356,9.672,0
			c19.326-16.303,43.855-25.281,69.069-25.281C388.957,76.712,437,124.754,437,183.808c0,133.498-162.721,230.12-169.648,234.168
			L256,424.61l-11.352-6.634C237.721,413.928,75,317.306,75,183.808c0-23.754,7.656-46.272,22.139-65.12
			c2.524-3.284,1.908-7.993-1.377-10.517c-3.284-2.524-7.993-1.908-10.517,1.377C68.729,131.04,60,156.719,60,183.808
			c0,142.008,169.85,242.894,177.08,247.119l15.136,8.845c1.169,0.683,2.477,1.024,3.784,1.024s2.615-0.341,3.784-1.024
			l15.136-8.845C282.15,426.702,452,325.816,452,183.808C452,116.483,397.229,61.712,329.905,61.712z"/>
	</g>
</g>
<g>
</g>
<g>
</g>
<g>
</g>
<g>
</g>
<g>
</g>
<g>
</g>
<g>
</g>
<g>
</g>
<g>
</g>
<g>
</g>
<g>
</g>
<g>
</g>
<g>
</g>
<g>
</g>
<g>
</g>
</svg>
